<svg width="18" height="18" viewBox="0 0 18 18" fill="none" xmlns="http://www.w3.org/2000/svg">
<path d="M2.63592 15.364C2.44898 15.177 2.40292 14.8644 2.50783 14.4945C2.61273 14.1246 2.86006 13.7275 3.19572 13.39L13.3836 3.20206C13.7213 2.86441 14.1196 2.61509 14.491 2.50894C14.8623 2.4028 15.1763 2.44853 15.3638 2.63606C15.5514 2.8236 15.5971 3.13758 15.491 3.50894C15.3848 3.88031 15.1355 4.27862 14.7978 4.61627L4.60994 14.8042C4.27245 15.1398 3.87533 15.3872 3.5054 15.4921C3.13548 15.597 2.82286 15.5509 2.63592 15.364Z" fill="white"/>
<path d="M2.63602 2.63605C2.82295 2.4491 3.13557 2.40304 3.50549 2.50795C3.87542 2.61285 4.27255 2.86018 4.61003 3.19585L14.7979 13.3838C15.1356 13.7214 15.3849 14.1197 15.4911 14.4911C15.5972 14.8624 15.5515 15.1764 15.3639 15.364C15.1764 15.5515 14.8624 15.5972 14.4911 15.4911C14.1197 15.3849 13.7214 15.1356 13.3837 14.798L3.19582 4.61006C2.86015 4.27258 2.61282 3.87545 2.50792 3.50552C2.40301 3.1356 2.44907 2.82298 2.63602 2.63605Z" fill="white"/>
</svg>
