<svg width="14" height="14" viewBox="0 0 14 14" fill="none" xmlns="http://www.w3.org/2000/svg">
<path fill-rule="evenodd" clip-rule="evenodd" d="M6.70827 0.000221513H1.45827C1.07841 -0.00640508 0.711416 0.135877 0.437965 0.395794C0.164515 0.655711 0.00698412 1.01199 0 1.38632V12.6139C0.00703145 12.9882 0.164583 13.3444 0.438028 13.6043C0.711474 13.8641 1.07844 14.0064 1.45827 13.9998H6.70827C10.7353 13.9998 14 10.897 14 7.06929V6.93071C14 3.10318 10.7353 0.000221513 6.70827 0.000221513ZM11.7289 5.6226C11.7784 5.64318 11.8223 5.67409 11.8574 5.71302C11.8857 5.7467 11.9008 5.78864 11.9001 5.83167C11.8993 5.8747 11.8828 5.91615 11.8534 5.94895L6.70556 12.489C6.65676 12.5362 6.59543 12.5702 6.52798 12.5874C6.46054 12.6045 6.38946 12.6042 6.32217 12.5865C6.26009 12.5787 6.2031 12.5499 6.16168 12.5055C6.12026 12.4611 6.09719 12.404 6.09672 12.3448L6.66899 8.40632H2.42864C2.37434 8.40825 2.3203 8.39845 2.27061 8.37766C2.22092 8.35687 2.1769 8.32564 2.14188 8.28635C2.11367 8.25225 2.09891 8.20991 2.10017 8.16663C2.10143 8.12334 2.11862 8.08183 2.14877 8.04925L7.38314 1.50857C7.4329 1.46153 7.49513 1.42802 7.56331 1.41155C7.63148 1.39509 7.70308 1.39628 7.7706 1.415C7.83267 1.42362 7.88921 1.45354 7.92945 1.49906C7.96969 1.54457 7.99081 1.60249 7.9888 1.66179L7.26723 5.59422H11.5715C11.6256 5.59232 11.6794 5.60203 11.7289 5.6226Z" fill="white"/>
</svg>
