<svg width="15" height="15" viewBox="0 0 15 15" fill="none" xmlns="http://www.w3.org/2000/svg">
<path fill-rule="evenodd" clip-rule="evenodd" d="M1.37536 0C0.615769 0 0 0.61577 0 1.37536V10.2722C0 11.0318 0.615768 11.6476 1.37536 11.6476H9.68759L12.3467 13.9471C12.5138 14.0916 12.7733 13.9729 12.7733 13.7521V11.6476H13.6246C14.3842 11.6476 15 11.0318 15 10.2722V1.37536C15 0.615769 14.3842 0 13.6246 0H1.37536ZM2.23476 4.23359C2.23476 3.81819 2.57151 3.48144 2.98691 3.48144H11.8838C12.2992 3.48144 12.6359 3.81819 12.6359 4.23359C12.6359 4.64899 12.2992 4.98574 11.8838 4.98574H2.98691C2.57151 4.98574 2.23476 4.64899 2.23476 4.23359ZM2.98681 6.96264C2.57141 6.96264 2.23466 7.29939 2.23466 7.71479C2.23466 8.13019 2.57141 8.46694 2.98681 8.46694H8.87506C9.29046 8.46694 9.62721 8.13019 9.62721 7.71479C9.62721 7.29939 9.29046 6.96264 8.87506 6.96264H2.98681Z" fill="white"/>
</svg>
