<svg width="16" height="23" viewBox="0 0 16 23" fill="none" xmlns="http://www.w3.org/2000/svg">
<circle cx="7.81165" cy="7.81165" r="7.81165" fill="white"/>
<rect x="4" y="13" width="8" height="5" rx="1.27537" fill="white"/>
<path d="M5 20.1404C5 19.7677 5.30214 19.4656 5.67484 19.4656H9.94881C10.3215 19.4656 10.6237 19.7677 10.6237 20.1404V20.5903C10.6237 21.5842 9.81796 22.3899 8.82408 22.3899H6.79957C5.80569 22.3899 5 21.5842 5 20.5903V20.1404Z" fill="white"/>
<path d="M10.9695 7.05504C10.9445 7.02746 10.9131 7.00557 10.8777 6.99099C10.8423 6.97642 10.8039 6.96954 10.7653 6.97089H7.69081L8.20622 4.18542C8.20765 4.14341 8.19256 4.10239 8.16382 4.07015C8.13508 4.03791 8.09469 4.01672 8.05036 4.01061C8.00213 3.99735 7.95099 3.9965 7.90229 4.00817C7.8536 4.01983 7.80914 4.04356 7.7736 4.07688L4.03477 8.70987C4.01323 8.73295 4.00095 8.76235 4.00005 8.79301C3.99915 8.82367 4.00969 8.85366 4.02985 8.87781C4.05486 8.90565 4.0863 8.92777 4.12179 8.94249C4.15728 8.95722 4.19589 8.96416 4.23467 8.96279H7.2635L6.85473 11.7525C6.85507 11.7945 6.87154 11.8349 6.90113 11.8664C6.93072 11.8978 6.97142 11.9182 7.01576 11.9238C7.06383 11.9363 7.1146 11.9365 7.16277 11.9244C7.21095 11.9122 7.25476 11.8881 7.28962 11.8547L10.9666 7.22215C10.9877 7.19892 10.9995 7.16956 11 7.13908C11.0005 7.1086 10.9897 7.0789 10.9695 7.05504Z" fill="#447AFF"/>
</svg>
