<svg width="18" height="13" viewBox="0 0 18 13" fill="none" xmlns="http://www.w3.org/2000/svg">
<path fill-rule="evenodd" clip-rule="evenodd" d="M0 6.4093C0 5.82297 0.475313 5.34766 1.06164 5.34766H16.3965C16.9828 5.34766 17.4581 5.82297 17.4581 6.4093C17.4581 6.99562 16.9828 7.47094 16.3965 7.47094H1.06164C0.475313 7.47094 0 6.99562 0 6.4093Z" fill="white"/>
<path fill-rule="evenodd" clip-rule="evenodd" d="M6.43982 0.262689C6.88108 0.648789 6.92579 1.31949 6.53969 1.76075L2.51465 6.3608L6.49142 10.3376C6.90602 10.7522 6.90602 11.4244 6.49142 11.839C6.07682 12.2536 5.40463 12.2536 4.99003 11.839L0.31095 7.15987C-0.0842625 6.76466 -0.105371 6.13071 0.262678 5.71008L4.94176 0.36256C5.32786 -0.0786968 5.99857 -0.12341 6.43982 0.262689Z" fill="white"/>
</svg>
