<svg width="47" height="46" viewBox="0 0 47 46" fill="none" xmlns="http://www.w3.org/2000/svg">
<circle cx="23.5" cy="23" r="23" fill="#45A07D"/>
<path d="M18.7942 34.5H18.5993C18.2187 34.4747 17.8485 34.3738 17.5092 34.2034C17.1698 34.033 16.8689 33.7966 16.626 33.509L9.76513 25.3877C9.29126 24.8265 9.06705 24.1043 9.13781 23.3799C9.20857 22.6556 9.56879 21.9885 10.1427 21.5252C10.427 21.2953 10.7554 21.1223 11.1081 21.0164C11.4607 20.9106 11.831 20.8739 12.1983 20.9082C12.5655 20.9424 12.9231 21.0471 13.2489 21.2163C13.5747 21.3855 13.8638 21.6157 14.0985 21.894L19.0714 27.7839L33.1677 15.0986C33.7154 14.6066 34.4405 14.3471 35.1837 14.3774C35.9268 14.4077 36.6288 14.7252 37.1326 15.2601C37.3823 15.5253 37.5753 15.836 37.7021 16.1745C37.8289 16.5129 37.888 16.8724 37.8726 17.2325C37.8573 17.5926 37.769 17.9464 37.6138 18.2734C37.4586 18.6003 37.2396 18.8939 36.9682 19.1379L20.6853 33.7713C20.1698 34.2371 19.4962 34.4971 18.7942 34.5Z" fill="white"/>
</svg>
