<svg width="45" height="8" viewBox="0 0 45 8" fill="none" xmlns="http://www.w3.org/2000/svg">
<path d="M2.8255 0.292896C3.31021 0.28266 3.79397 0.342398 4.26319 0.470432C4.62864 0.570427 4.95973 0.776801 5.21832 1.06577C5.48252 1.39067 5.66394 1.7806 5.74563 2.19911C5.86614 2.79108 5.9212 3.39567 5.90972 4.00088C5.92125 4.6063 5.86619 5.21109 5.74563 5.80325C5.66394 6.22176 5.48252 6.61169 5.21832 6.9366C4.95973 7.22556 4.62864 7.43194 4.26319 7.53193C3.79396 7.65986 3.3102 7.7195 2.8255 7.70917C2.27499 7.70917 1.76927 7.69871 1.30833 7.6778C0.847397 7.65689 0.411287 7.63253 0 7.60472L0.766018 6.19404C1.00482 6.21495 1.29999 6.23061 1.65153 6.24101C2.00307 6.25142 2.39439 6.25642 2.8255 6.25602C3.06281 6.27021 3.29823 6.20432 3.49732 6.06798C3.68645 5.89295 3.80839 5.6516 3.84037 5.38905C3.91718 4.93056 3.9507 4.46523 3.94043 3.99983C3.9507 3.53443 3.91718 3.0691 3.84037 2.61061C3.80839 2.34806 3.68645 2.10671 3.49732 1.93169C3.29823 1.79535 3.06281 1.72945 2.8255 1.74364H0.835771L0 0.396145C0.417862 0.368332 0.853972 0.34397 1.30833 0.32306C1.76269 0.30215 2.26841 0.292095 2.8255 0.292896ZM1.87037 0.397946V7.60412H0V0.397346L1.87037 0.397946ZM8.78496 0.366581H9.96393C10.3652 0.366581 10.7599 0.375286 11.1479 0.392694C11.5359 0.410102 11.8924 0.439716 12.2174 0.481537L12.1279 1.88126H9.56098C9.43759 1.87295 9.31606 1.9161 9.22279 2.00132C9.18212 2.04436 9.15049 2.09587 9.12993 2.15253C9.10937 2.20919 9.10035 2.26973 9.10343 2.33028V5.67284C9.10035 5.73338 9.10937 5.79393 9.12993 5.85059C9.15049 5.90724 9.18212 5.95875 9.22279 6.0018C9.31606 6.08702 9.43759 6.13016 9.56098 6.12185H12.1278L12.2172 7.52158C11.8922 7.55639 11.5357 7.58251 11.1478 7.59992C10.7598 7.61732 10.3652 7.62778 9.96379 7.63128C9.56251 7.63478 9.16952 7.63653 8.78482 7.63653C8.58128 7.64568 8.37801 7.61255 8.18669 7.53905C7.99537 7.46556 7.81974 7.35313 7.66989 7.20823C7.52765 7.06407 7.41601 6.89 7.34229 6.6974C7.26856 6.50481 7.23441 6.29805 7.24207 6.09064V1.91203C7.23349 1.70372 7.2672 1.49589 7.34096 1.3023C7.41472 1.10872 7.52684 0.933811 7.66989 0.789185C7.97401 0.499506 8.37471 0.347485 8.78496 0.366131V0.366581ZM7.42188 3.22861H11.7696V4.55525H7.42188V3.22861ZM15.9881 0.250576C16.3397 0.257579 16.7277 0.281941 17.1523 0.323661C17.5712 0.364257 17.9848 0.451797 18.386 0.584786L18.2666 1.8592C17.9748 1.8522 17.6183 1.84524 17.1971 1.83834C16.7759 1.83144 16.363 1.82794 15.9584 1.82784C15.8059 1.82784 15.6783 1.83284 15.5753 1.84284C15.4896 1.84884 15.4056 1.87005 15.3266 1.90557C15.268 1.93239 15.2203 1.98027 15.1923 2.04064C15.1625 2.11856 15.1489 2.20228 15.1525 2.28616C15.148 2.35696 15.1586 2.42794 15.1835 2.4939C15.2085 2.55985 15.2472 2.61911 15.2967 2.66734C15.4518 2.7862 15.6251 2.8763 15.8092 2.93372L17.0926 3.43511C17.6498 3.66522 18.0395 3.94901 18.2616 4.28647C18.498 4.67726 18.6144 5.13485 18.5949 5.59735C18.6031 5.94432 18.556 6.29028 18.4557 6.62099C18.3734 6.88429 18.2152 7.11424 18.003 7.27906C17.7544 7.45668 17.4731 7.57764 17.1773 7.63413C16.7593 7.71805 16.3343 7.75657 15.9088 7.74909C15.6767 7.74909 15.3368 7.73168 14.8891 7.69686C14.3771 7.6507 13.8696 7.55984 13.3719 7.42523L13.4814 6.04637C13.8793 6.05337 14.2326 6.06207 14.541 6.07248C14.8495 6.08288 15.1181 6.08984 15.3469 6.09334C15.5756 6.09684 15.7563 6.09859 15.8891 6.09859C16.0622 6.10264 16.2353 6.09039 16.4064 6.06197C16.5024 6.05109 16.5911 6.00292 16.6551 5.92691C16.7066 5.84129 16.731 5.74074 16.7247 5.63967C16.7283 5.54332 16.7111 5.44736 16.6743 5.35904C16.6347 5.28272 16.574 5.22081 16.5002 5.1815C16.3935 5.12222 16.2819 5.0733 16.1668 5.03533L14.7939 4.46085C14.25 4.22414 13.8653 3.9421 13.6398 3.61475C13.3998 3.23515 13.2813 2.7851 13.3016 2.32998C13.2908 1.98202 13.3414 1.63498 13.4508 1.30633C13.5417 1.05342 13.7029 0.835056 13.9135 0.679632C14.165 0.50899 14.4484 0.396732 14.7446 0.350373C15.1555 0.278512 15.5716 0.245115 15.9881 0.250576ZM25.7481 0.396746L24.0766 3.25952C24.0024 3.39141 23.9121 3.5125 23.808 3.6197C23.7214 3.71023 23.6245 3.78916 23.5195 3.85471V3.88608C23.6378 3.96216 23.7478 4.05147 23.8477 4.15245C23.9686 4.26739 24.0696 4.40347 24.1462 4.55465L25.8575 7.60412H23.7881L21.8281 3.834L23.7482 0.397346L25.7481 0.396746ZM21.7685 0.396746V2.31872C21.768 2.57612 21.7463 2.83299 21.7039 3.08649C21.6633 3.33825 21.5983 3.585 21.5099 3.8229C21.5766 4.0388 21.6363 4.27036 21.689 4.51758C21.7391 4.73839 21.7658 4.96431 21.7686 5.19126V7.60412H19.908V0.397346L21.7685 0.396746ZM22.4152 3.207V4.51263H21.2212V3.207H22.4152ZM29.6182 0.292896C30.1488 0.277668 30.6785 0.344517 31.1905 0.491292C31.5538 0.592416 31.87 0.827996 32.0809 1.15461C32.27 1.46476 32.3645 1.90172 32.3645 2.46549C32.3679 2.74937 32.3259 3.03184 32.2402 3.30109C32.1617 3.54537 32.014 3.75864 31.8169 3.91234C31.5748 4.08544 31.2933 4.18816 31.0012 4.21008V4.27281C31.1411 4.29099 31.2773 4.33333 31.4041 4.39812C31.5594 4.47847 31.6954 4.59455 31.802 4.73774C31.9382 4.9263 32.0287 5.14678 32.0656 5.3802L32.6327 7.60412H30.6728L30.1853 5.44308C30.166 5.27212 30.0883 5.11434 29.9664 4.99916C29.8343 4.91712 29.6817 4.87889 29.5286 4.88946C29.0511 4.88246 28.6564 4.87895 28.3446 4.87895C28.0328 4.87895 27.7692 4.87545 27.5537 4.86845C27.3382 4.86145 27.1342 4.85099 26.9418 4.83708L26.9717 3.46873H29.5783C29.765 3.47626 29.9515 3.45157 30.1305 3.39564C30.1916 3.37432 30.2476 3.33952 30.2948 3.29357C30.342 3.24762 30.3793 3.1916 30.4041 3.12926C30.4641 2.95718 30.4912 2.77434 30.4837 2.59125C30.492 2.40645 30.4649 2.22178 30.4041 2.04814C30.3786 1.98685 30.341 1.9319 30.2939 1.88691C30.2467 1.84191 30.191 1.80787 30.1305 1.78702C29.9515 1.73109 29.765 1.7064 29.5783 1.71393C28.9217 1.71393 28.3662 1.71743 27.9119 1.72444C27.4577 1.73144 27.1476 1.74189 26.9817 1.7558L26.8324 0.397946C27.1243 0.36313 27.3996 0.338768 27.6582 0.324861C27.9168 0.310955 28.2004 0.30225 28.5089 0.298749C28.8173 0.294847 29.1871 0.292896 29.6182 0.292896ZM28.6631 0.397946V7.60412H26.8324V0.397346L28.6631 0.397946ZM35.319 0.366581H36.4979C36.8992 0.366581 37.2939 0.375286 37.6819 0.392694C38.0699 0.410102 38.4264 0.439716 38.7514 0.481537L38.6619 1.88126H36.095C35.9716 1.87295 35.85 1.9161 35.7568 2.00132C35.7161 2.04436 35.6845 2.09587 35.6639 2.15253C35.6434 2.20919 35.6343 2.26973 35.6374 2.33028V5.67284C35.6344 5.7333 35.6435 5.79377 35.664 5.85034C35.6846 5.90692 35.7162 5.95835 35.7568 6.00135C35.85 6.08657 35.9716 6.12971 36.095 6.1214H38.6617L38.7512 7.52113C38.4262 7.55594 38.0697 7.58206 37.6818 7.59946C37.2938 7.61687 36.8992 7.62733 36.4978 7.63083C36.0965 7.63433 35.7035 7.63608 35.3188 7.63608C35.1153 7.64523 34.912 7.6121 34.7207 7.53861C34.5294 7.46511 34.3537 7.35268 34.2039 7.20778C34.0616 7.06362 33.95 6.88955 33.8763 6.69695C33.8025 6.50436 33.7684 6.2976 33.7761 6.09019V1.91203C33.7675 1.70372 33.8012 1.49589 33.875 1.3023C33.9487 1.10872 34.0608 0.933811 34.2039 0.789185C34.508 0.499506 34.9087 0.347485 35.319 0.366131V0.366581ZM33.9557 3.22816H38.3034V4.5548H33.9557V3.22816ZM41.5669 0.366131H42.7465C43.1478 0.366131 43.5425 0.374836 43.9305 0.392244C44.3186 0.409652 44.6751 0.439266 45 0.481087L44.9105 1.88081H42.3429C42.2195 1.8725 42.098 1.91565 42.0047 2.00087C41.964 2.04391 41.9324 2.09542 41.9118 2.15208C41.8913 2.20873 41.8822 2.26928 41.8853 2.32983V5.67239C41.8822 5.73293 41.8913 5.79348 41.9118 5.85014C41.9324 5.90679 41.964 5.9583 42.0047 6.00135C42.098 6.08657 42.2195 6.12971 42.3429 6.1214H44.9097L44.9991 7.52113C44.6741 7.55594 44.3176 7.58206 43.9297 7.59946C43.5417 7.61687 43.1471 7.62733 42.7457 7.63083C42.3444 7.63433 41.9514 7.63608 41.5667 7.63608C41.3632 7.64523 41.1599 7.6121 40.9686 7.53861C40.7773 7.46511 40.6016 7.35268 40.4518 7.20778C40.3095 7.06362 40.1979 6.88955 40.1242 6.69695C40.0505 6.50436 40.0163 6.2976 40.024 6.09019V1.91203C40.0154 1.70372 40.0491 1.49589 40.1229 1.3023C40.1966 1.10872 40.3087 0.933811 40.4518 0.789185C40.7559 0.499506 41.1566 0.347485 41.5669 0.366131ZM40.2038 3.22816H44.5515V4.5548H40.2039L40.2038 3.22816Z" fill="white"/>
</svg>
