<svg width="14" height="14" viewBox="0 0 14 14" fill="none" xmlns="http://www.w3.org/2000/svg">
<path fill-rule="evenodd" clip-rule="evenodd" d="M7 14C10.866 14 14 10.866 14 7C14 3.13401 10.866 0 7 0C3.13401 0 0 3.13401 0 7C0 10.866 3.13401 14 7 14ZM4.35998 3.50105C4.569 3.50132 4.76997 3.58393 4.9215 3.73189L7.01186 5.7747L9.11071 3.73124C9.26914 3.57777 9.48054 3.49472 9.69861 3.50026C9.91668 3.5058 10.1237 3.59948 10.2745 3.76081C10.4244 3.9231 10.5053 4.13949 10.4997 4.36269C10.4941 4.58589 10.4023 4.79774 10.2446 4.95194L8.14196 6.99841L10.2446 9.04487C10.4023 9.19907 10.4941 9.41092 10.4997 9.63412C10.5053 9.85732 10.4244 10.0737 10.2745 10.236C10.1978 10.319 10.1053 10.3852 10.0028 10.4306C9.90026 10.476 9.78988 10.4996 9.67821 10.5C9.46698 10.4997 9.26385 10.4166 9.11071 10.2677L6.9902 8.20315L4.9215 10.2248C4.84603 10.3102 4.75423 10.3788 4.65183 10.4261C4.54943 10.4735 4.43863 10.4986 4.32635 10.4999C4.21407 10.5013 4.10273 10.4788 3.99927 10.434C3.89582 10.3891 3.80247 10.3228 3.72507 10.2392C3.64767 10.1556 3.58787 10.0565 3.54941 9.9481C3.51095 9.83968 3.49465 9.72428 3.50154 9.60909C3.50843 9.49391 3.53835 9.38142 3.58944 9.27866C3.64053 9.17589 3.71168 9.08506 3.79846 9.01183L5.88017 6.97834L3.79846 4.9438C3.68155 4.82799 3.60088 4.679 3.56675 4.51585C3.53261 4.3527 3.54657 4.1828 3.60684 4.02784C3.6671 3.87289 3.77094 3.73991 3.90509 3.64589C4.03924 3.55187 4.19761 3.50108 4.35998 3.5V3.50105Z" fill="white"/>
</svg>
