<svg width="6" height="24" viewBox="0 0 6 24" fill="none" xmlns="http://www.w3.org/2000/svg">
<mask id="path-1-inside-1_48_925" fill="white">
<path fill-rule="evenodd" clip-rule="evenodd" d="M3 0.84375C1.82639 0.84375 0.875 1.79514 0.875 2.96875V13.5937C0.875 14.7674 1.82639 15.7187 3 15.7187C4.1736 15.7187 5.125 14.7674 5.125 13.5937V2.96875C5.125 1.79514 4.1736 0.84375 3 0.84375ZM3 23.1562C4.1736 23.1562 5.125 22.2049 5.125 21.0312C5.125 19.8576 4.1736 18.9062 3 18.9062C1.82639 18.9062 0.875 19.8576 0.875 21.0312C0.875 22.2049 1.82639 23.1562 3 23.1562Z"/>
</mask>
<path fill-rule="evenodd" clip-rule="evenodd" d="M3 0.84375C1.82639 0.84375 0.875 1.79514 0.875 2.96875V13.5937C0.875 14.7674 1.82639 15.7187 3 15.7187C4.1736 15.7187 5.125 14.7674 5.125 13.5937V2.96875C5.125 1.79514 4.1736 0.84375 3 0.84375ZM3 23.1562C4.1736 23.1562 5.125 22.2049 5.125 21.0312C5.125 19.8576 4.1736 18.9062 3 18.9062C1.82639 18.9062 0.875 19.8576 0.875 21.0312C0.875 22.2049 1.82639 23.1562 3 23.1562Z" fill="white"/>
<path d="M2.875 2.96875C2.875 2.89971 2.93096 2.84375 3 2.84375V-1.15625C0.721826 -1.15625 -1.125 0.690575 -1.125 2.96875H2.875ZM2.875 13.5937V2.96875H-1.125V13.5937H2.875ZM3 13.7187C2.93096 13.7187 2.875 13.6628 2.875 13.5937H-1.125C-1.125 15.8719 0.721825 17.7188 3 17.7188V13.7187ZM3.125 13.5937C3.125 13.6628 3.06904 13.7187 3 13.7187V17.7188C5.27817 17.7188 7.125 15.8719 7.125 13.5937H3.125ZM3.125 2.96875V13.5937H7.125V2.96875H3.125ZM3 2.84375C3.06904 2.84375 3.125 2.89971 3.125 2.96875H7.125C7.125 0.690575 5.27817 -1.15625 3 -1.15625V2.84375ZM3.125 21.0312C3.125 21.1003 3.06904 21.1562 3 21.1562V25.1562C5.27817 25.1562 7.125 23.3094 7.125 21.0312H3.125ZM3 20.9062C3.06904 20.9062 3.125 20.9622 3.125 21.0312H7.125C7.125 18.7531 5.27817 16.9062 3 16.9062V20.9062ZM2.875 21.0312C2.875 20.9622 2.93096 20.9062 3 20.9062V16.9062C0.721824 16.9062 -1.125 18.7531 -1.125 21.0312H2.875ZM3 21.1562C2.93096 21.1562 2.875 21.1003 2.875 21.0312H-1.125C-1.125 23.3094 0.721824 25.1562 3 25.1562V21.1562Z" fill="white" mask="url(#path-1-inside-1_48_925)"/>
</svg>
